<svg width="1080" height="1080" viewBox="0 0 1080 1080" fill="none" xmlns="http://www.w3.org/2000/svg">
<path d="M209.332 367.774H396.642C419.907 367.774 439.75 375.985 456.171 392.407C472.593 408.829 480.804 428.672 480.804 451.936V479.134H400.748V468.357C400.406 460.147 397.327 453.304 391.511 447.83C386.037 442.014 379.365 439.106 371.497 439.106H232.425C224.556 439.106 218.056 441.501 212.924 446.291C207.792 450.738 205.226 456.725 205.226 464.252V472.463C205.226 479.305 212.24 484.779 226.267 488.885C240.294 492.99 257.742 495.898 278.611 497.609C299.48 499.319 322.06 501.885 346.351 505.306C370.983 508.728 393.734 513.004 414.604 518.136C435.473 522.926 452.921 530.965 466.948 542.255C480.975 553.545 487.988 567.401 487.988 583.823V617.18C487.988 640.444 479.778 660.287 463.356 676.708C446.934 693.13 427.091 701.341 403.827 701.341H209.332C186.068 701.341 166.225 693.13 149.803 676.708C133.381 660.287 125.17 640.444 125.17 617.18V589.981H205.226V600.758C205.226 608.969 207.963 615.982 213.437 621.798C219.253 627.272 226.267 630.009 234.478 630.009H380.734C388.603 630.009 395.103 627.785 400.235 623.338C405.367 618.548 407.932 612.39 407.932 604.863V596.652C407.932 590.494 402.63 585.533 392.024 581.77C381.76 578.007 368.247 575.099 351.483 573.046C335.061 570.993 316.758 569.112 296.572 567.401C276.73 565.691 256.715 563.125 236.53 559.703C216.345 555.94 197.871 551.493 181.107 546.361C164.685 540.887 151.172 533.018 140.566 522.754C130.302 512.149 125.17 499.661 125.17 485.292V451.936C125.17 428.672 133.381 408.829 149.803 392.407C166.225 375.985 186.068 367.774 209.332 367.774ZM731.797 442.698L662.004 575.099H801.589L731.797 442.698ZM691.769 367.774H771.825L955.543 701.341H868.816L833.406 634.114H630.187L594.778 701.341H508.051L691.769 367.774Z" fill="white"/>
</svg>
