<svg width="1080" height="1080" viewBox="0 0 1080 1080" fill="none" xmlns="http://www.w3.org/2000/svg">
<path d="M209.332 367.774H396.642C419.907 367.774 439.75 375.985 456.171 392.407C472.593 408.829 480.804 428.672 480.804 451.936V479.134H400.748V468.357C400.406 460.147 397.327 453.304 391.511 447.83C386.037 442.014 379.365 439.106 371.497 439.106H232.425C224.556 439.106 218.056 441.501 212.924 446.291C207.792 450.738 205.226 456.725 205.226 464.252V472.463C205.226 479.305 212.24 484.779 226.267 488.885C240.294 492.99 257.742 495.898 278.611 497.609C299.48 499.319 322.06 501.885 346.351 505.306C370.983 508.728 393.734 513.004 414.604 518.136C435.473 522.926 452.921 530.965 466.948 542.255C480.975 553.545 487.988 567.401 487.988 583.823V617.18C487.988 640.444 479.778 660.287 463.356 676.708C446.934 693.13 427.091 701.341 403.827 701.341H209.332C186.068 701.341 166.225 693.13 149.803 676.708C133.381 660.287 125.17 640.444 125.17 617.18V589.981H205.226V600.758C205.226 608.969 207.963 615.982 213.437 621.798C219.253 627.272 226.267 630.009 234.478 630.009H380.734C388.603 630.009 395.103 627.785 400.235 623.338C405.367 618.548 407.932 612.39 407.932 604.863V596.652C407.932 590.494 402.63 585.533 392.024 581.77C381.76 578.007 368.247 575.099 351.483 573.046C335.061 570.993 316.758 569.112 296.572 567.401C276.73 565.691 256.715 563.125 236.53 559.703C216.345 555.94 197.871 551.493 181.107 546.361C164.685 540.887 151.172 533.018 140.566 522.754C130.302 512.149 125.17 499.661 125.17 485.292V451.936C125.17 428.672 133.381 408.829 149.803 392.407C166.225 375.985 186.068 367.774 209.332 367.774ZM731.797 442.698L662.004 575.099H801.589L731.797 442.698ZM691.769 367.774H771.825L955.543 701.341H868.816L833.406 634.114H630.187L594.778 701.341H508.051L691.769 367.774Z" fill="white"/>
<mask id="path-2-outside-1_411_316" maskUnits="userSpaceOnUse" x="300.152" y="480.428" width="479" height="117" fill="black">
<rect fill="white" x="300.152" y="480.428" width="479" height="117"/>
<path d="M373.931 487.184H385.574V525.77H419.01V535.696H373.931V487.184ZM440.41 497.558C439.216 497.558 438.196 497.981 437.35 498.827C436.554 499.623 436.156 500.618 436.156 501.812V521.068C436.156 522.262 436.554 523.282 437.35 524.128C438.196 524.924 439.216 525.322 440.41 525.322H460.785C461.979 525.322 462.974 524.924 463.77 524.128C464.616 523.282 465.039 522.262 465.039 521.068V501.812C465.039 500.618 464.616 499.623 463.77 498.827C462.974 497.981 461.979 497.558 460.785 497.558H440.41ZM436.753 487.184H464.442C467.825 487.184 470.711 488.378 473.1 490.767C475.488 493.155 476.682 496.041 476.682 499.424V523.456C476.682 526.84 475.488 529.725 473.1 532.114C470.711 534.502 467.825 535.696 464.442 535.696H436.753C433.37 535.696 430.484 534.502 428.095 532.114C425.707 529.725 424.513 526.84 424.513 523.456V499.424C424.513 496.041 425.707 493.155 428.095 490.767C430.484 488.378 433.37 487.184 436.753 487.184ZM496.591 487.184H524.28C527.664 487.184 530.549 488.378 532.938 490.767C535.326 493.155 536.52 496.041 536.52 499.424V503.977H524.877V501.812C524.877 500.618 524.454 499.623 523.608 498.827C522.812 497.981 521.817 497.558 520.623 497.558H500.248C499.054 497.558 498.034 497.981 497.188 498.827C496.392 499.623 495.994 500.618 495.994 501.812V521.068C495.994 522.262 496.392 523.282 497.188 524.128C498.034 524.924 499.054 525.322 500.248 525.322H520.623C521.817 525.322 522.812 524.924 523.608 524.128C524.454 523.282 524.877 522.262 524.877 521.068V516.366H504.278V508.007H536.52V523.456C536.52 526.84 535.326 529.725 532.938 532.114C530.549 534.502 527.664 535.696 524.28 535.696H496.591C493.208 535.696 490.322 534.502 487.934 532.114C485.545 529.725 484.351 526.84 484.351 523.456V499.424C484.351 496.041 485.545 493.155 487.934 490.767C490.322 488.378 493.208 487.184 496.591 487.184ZM560.086 497.558C558.892 497.558 557.872 497.981 557.026 498.827C556.23 499.623 555.832 500.618 555.832 501.812V521.068C555.832 522.262 556.23 523.282 557.026 524.128C557.872 524.924 558.892 525.322 560.086 525.322H580.461C581.655 525.322 582.65 524.924 583.447 524.128C584.292 523.282 584.715 522.262 584.715 521.068V501.812C584.715 500.618 584.292 499.623 583.447 498.827C582.65 497.981 581.655 497.558 580.461 497.558H560.086ZM556.429 487.184H584.118C587.502 487.184 590.387 488.378 592.776 490.767C595.164 493.155 596.358 496.041 596.358 499.424V523.456C596.358 526.84 595.164 529.725 592.776 532.114C590.387 534.502 587.502 535.696 584.118 535.696H556.429C553.046 535.696 550.16 534.502 547.772 532.114C545.383 529.725 544.189 526.84 544.189 523.456V499.424C544.189 496.041 545.383 493.155 547.772 490.767C550.16 488.378 553.046 487.184 556.429 487.184ZM633.91 487.184H645.553V535.696H633.91V487.184ZM653.297 487.184H666.209L693.823 520.919V487.184H705.466V535.696H692.554L664.94 501.962V535.696H653.297V487.184ZM318.812 552.558V565.246H343.441C344.635 565.246 345.63 564.848 346.426 564.052C347.272 563.206 347.695 562.186 347.695 560.992V556.812C347.695 555.618 347.272 554.623 346.426 553.827C345.63 552.981 344.635 552.558 343.441 552.558H318.812ZM307.169 542.184H347.098C350.482 542.184 353.367 543.378 355.756 545.767C358.144 548.155 359.338 551.041 359.338 554.424V563.38C359.338 566.764 358.144 569.649 355.756 572.038C353.367 574.426 350.482 575.62 347.098 575.62H318.812V590.696H307.169V542.184ZM377.557 552.558V564.649H402.186C403.38 564.649 404.375 564.251 405.171 563.455C406.017 562.609 406.44 561.589 406.44 560.395V556.812C406.44 555.618 406.017 554.623 405.171 553.827C404.375 552.981 403.38 552.558 402.186 552.558H377.557ZM365.914 542.184H405.843C409.226 542.184 412.112 543.378 414.501 545.767C416.889 548.155 418.083 551.041 418.083 554.424V562.783C418.083 565.619 417.212 568.132 415.471 570.321C413.779 572.51 411.59 573.928 408.903 574.575L419.8 590.696H406.589L395.991 575.023H377.557V590.696H365.914V542.184ZM441.941 552.558C440.746 552.558 439.726 552.981 438.881 553.827C438.085 554.623 437.686 555.618 437.686 556.812V576.068C437.686 577.262 438.085 578.282 438.881 579.128C439.726 579.924 440.746 580.322 441.941 580.322H462.316C463.51 580.322 464.505 579.924 465.301 579.128C466.147 578.282 466.57 577.262 466.57 576.068V556.812C466.57 555.618 466.147 554.623 465.301 553.827C464.505 552.981 463.51 552.558 462.316 552.558H441.941ZM438.284 542.184H465.973C469.356 542.184 472.242 543.378 474.63 545.767C477.018 548.155 478.213 551.041 478.213 554.424V578.456C478.213 581.84 477.018 584.725 474.63 587.114C472.242 589.502 469.356 590.696 465.973 590.696H438.284C434.9 590.696 432.014 589.502 429.626 587.114C427.238 584.725 426.044 581.84 426.044 578.456V554.424C426.044 551.041 427.238 548.155 429.626 545.767C432.014 543.378 434.9 542.184 438.284 542.184ZM498.122 542.184H525.811C529.194 542.184 532.08 543.378 534.468 545.767C536.857 548.155 538.051 551.041 538.051 554.424V558.977H526.408V556.812C526.408 555.618 525.985 554.623 525.139 553.827C524.343 552.981 523.348 552.558 522.154 552.558H501.779C500.585 552.558 499.565 552.981 498.719 553.827C497.923 554.623 497.525 555.618 497.525 556.812V576.068C497.525 577.262 497.923 578.282 498.719 579.128C499.565 579.924 500.585 580.322 501.779 580.322H522.154C523.348 580.322 524.343 579.924 525.139 579.128C525.985 578.282 526.408 577.262 526.408 576.068V571.366H505.809V563.007H538.051V578.456C538.051 581.84 536.857 584.725 534.468 587.114C532.08 589.502 529.194 590.696 525.811 590.696H498.122C494.738 590.696 491.852 589.502 489.464 587.114C487.076 584.725 485.882 581.84 485.882 578.456V554.424C485.882 551.041 487.076 548.155 489.464 545.767C491.852 543.378 494.738 542.184 498.122 542.184ZM556.998 552.558V564.649H581.627C582.821 564.649 583.817 564.251 584.613 563.455C585.459 562.609 585.881 561.589 585.881 560.395V556.812C585.881 555.618 585.459 554.623 584.613 553.827C583.817 552.981 582.821 552.558 581.627 552.558H556.998ZM545.355 542.184H585.284C588.668 542.184 591.554 543.378 593.942 545.767C596.33 548.155 597.524 551.041 597.524 554.424V562.783C597.524 565.619 596.654 568.132 594.912 570.321C593.22 572.51 591.031 573.928 588.344 574.575L599.241 590.696H586.031L575.433 575.023H556.998V590.696H545.355V542.184ZM606.214 542.184H651.293V552.11H617.857V561.44H649.501V571.366H617.857V580.77H651.293V590.696H606.214V542.184ZM671.295 542.184H698.536C701.92 542.184 704.805 543.378 707.194 545.767C709.582 548.155 710.776 551.041 710.776 554.424V558.38H699.133V556.812C699.084 555.618 698.636 554.623 697.79 553.827C696.994 552.981 696.024 552.558 694.879 552.558H674.653C673.509 552.558 672.564 552.907 671.817 553.603C671.071 554.25 670.698 555.121 670.698 556.215V557.409C670.698 558.405 671.718 559.201 673.758 559.798C675.798 560.395 678.335 560.818 681.371 561.067C684.406 561.315 687.689 561.688 691.222 562.186C694.805 562.684 698.113 563.306 701.148 564.052C704.184 564.748 706.721 565.918 708.761 567.56C710.801 569.202 711.821 571.217 711.821 573.605V578.456C711.821 581.84 710.627 584.725 708.239 587.114C705.85 589.502 702.964 590.696 699.581 590.696H671.295C667.912 590.696 665.026 589.502 662.637 587.114C660.249 584.725 659.055 581.84 659.055 578.456V574.501H670.698V576.068C670.698 577.262 671.096 578.282 671.892 579.128C672.738 579.924 673.758 580.322 674.952 580.322H696.223C697.367 580.322 698.312 579.999 699.059 579.352C699.805 578.655 700.178 577.76 700.178 576.665V575.471C700.178 574.575 699.407 573.854 697.865 573.306C696.372 572.759 694.407 572.336 691.968 572.038C689.58 571.739 686.918 571.465 683.983 571.217C681.097 570.968 678.186 570.595 675.251 570.097C672.315 569.55 669.628 568.903 667.19 568.157C664.802 567.361 662.836 566.216 661.294 564.724C659.801 563.181 659.055 561.365 659.055 559.275V554.424C659.055 551.041 660.249 548.155 662.637 545.767C665.026 543.378 667.912 542.184 671.295 542.184ZM731.716 542.184H758.957C762.341 542.184 765.227 543.378 767.615 545.767C770.003 548.155 771.197 551.041 771.197 554.424V558.38H759.554V556.812C759.505 555.618 759.057 554.623 758.211 553.827C757.415 552.981 756.445 552.558 755.3 552.558H735.075C733.93 552.558 732.985 552.907 732.239 553.603C731.492 554.25 731.119 555.121 731.119 556.215V557.409C731.119 558.405 732.139 559.201 734.179 559.798C736.219 560.395 738.757 560.818 741.792 561.067C744.827 561.315 748.111 561.688 751.643 562.186C755.226 562.684 758.534 563.306 761.57 564.052C764.605 564.748 767.142 565.918 769.182 567.56C771.222 569.202 772.242 571.217 772.242 573.605V578.456C772.242 581.84 771.048 584.725 768.66 587.114C766.271 589.502 763.386 590.696 760.002 590.696H731.716C728.333 590.696 725.447 589.502 723.059 587.114C720.67 584.725 719.476 581.84 719.476 578.456V574.501H731.119V576.068C731.119 577.262 731.517 578.282 732.313 579.128C733.159 579.924 734.179 580.322 735.373 580.322H756.644C757.788 580.322 758.733 579.999 759.48 579.352C760.226 578.655 760.599 577.76 760.599 576.665V575.471C760.599 574.575 759.828 573.854 758.286 573.306C756.793 572.759 754.828 572.336 752.39 572.038C750.001 571.739 747.339 571.465 744.404 571.217C741.518 570.968 738.607 570.595 735.672 570.097C732.736 569.55 730.049 568.903 727.611 568.157C725.223 567.361 723.258 566.216 721.715 564.724C720.223 563.181 719.476 561.365 719.476 559.275V554.424C719.476 551.041 720.67 548.155 723.059 545.767C725.447 543.378 728.333 542.184 731.716 542.184Z"/>
</mask>
<path d="M373.931 487.184H385.574V525.77H419.01V535.696H373.931V487.184ZM440.41 497.558C439.216 497.558 438.196 497.981 437.35 498.827C436.554 499.623 436.156 500.618 436.156 501.812V521.068C436.156 522.262 436.554 523.282 437.35 524.128C438.196 524.924 439.216 525.322 440.41 525.322H460.785C461.979 525.322 462.974 524.924 463.77 524.128C464.616 523.282 465.039 522.262 465.039 521.068V501.812C465.039 500.618 464.616 499.623 463.77 498.827C462.974 497.981 461.979 497.558 460.785 497.558H440.41ZM436.753 487.184H464.442C467.825 487.184 470.711 488.378 473.1 490.767C475.488 493.155 476.682 496.041 476.682 499.424V523.456C476.682 526.84 475.488 529.725 473.1 532.114C470.711 534.502 467.825 535.696 464.442 535.696H436.753C433.37 535.696 430.484 534.502 428.095 532.114C425.707 529.725 424.513 526.84 424.513 523.456V499.424C424.513 496.041 425.707 493.155 428.095 490.767C430.484 488.378 433.37 487.184 436.753 487.184ZM496.591 487.184H524.28C527.664 487.184 530.549 488.378 532.938 490.767C535.326 493.155 536.52 496.041 536.52 499.424V503.977H524.877V501.812C524.877 500.618 524.454 499.623 523.608 498.827C522.812 497.981 521.817 497.558 520.623 497.558H500.248C499.054 497.558 498.034 497.981 497.188 498.827C496.392 499.623 495.994 500.618 495.994 501.812V521.068C495.994 522.262 496.392 523.282 497.188 524.128C498.034 524.924 499.054 525.322 500.248 525.322H520.623C521.817 525.322 522.812 524.924 523.608 524.128C524.454 523.282 524.877 522.262 524.877 521.068V516.366H504.278V508.007H536.52V523.456C536.52 526.84 535.326 529.725 532.938 532.114C530.549 534.502 527.664 535.696 524.28 535.696H496.591C493.208 535.696 490.322 534.502 487.934 532.114C485.545 529.725 484.351 526.84 484.351 523.456V499.424C484.351 496.041 485.545 493.155 487.934 490.767C490.322 488.378 493.208 487.184 496.591 487.184ZM560.086 497.558C558.892 497.558 557.872 497.981 557.026 498.827C556.23 499.623 555.832 500.618 555.832 501.812V521.068C555.832 522.262 556.23 523.282 557.026 524.128C557.872 524.924 558.892 525.322 560.086 525.322H580.461C581.655 525.322 582.65 524.924 583.447 524.128C584.292 523.282 584.715 522.262 584.715 521.068V501.812C584.715 500.618 584.292 499.623 583.447 498.827C582.65 497.981 581.655 497.558 580.461 497.558H560.086ZM556.429 487.184H584.118C587.502 487.184 590.387 488.378 592.776 490.767C595.164 493.155 596.358 496.041 596.358 499.424V523.456C596.358 526.84 595.164 529.725 592.776 532.114C590.387 534.502 587.502 535.696 584.118 535.696H556.429C553.046 535.696 550.16 534.502 547.772 532.114C545.383 529.725 544.189 526.84 544.189 523.456V499.424C544.189 496.041 545.383 493.155 547.772 490.767C550.16 488.378 553.046 487.184 556.429 487.184ZM633.91 487.184H645.553V535.696H633.91V487.184ZM653.297 487.184H666.209L693.823 520.919V487.184H705.466V535.696H692.554L664.94 501.962V535.696H653.297V487.184ZM318.812 552.558V565.246H343.441C344.635 565.246 345.63 564.848 346.426 564.052C347.272 563.206 347.695 562.186 347.695 560.992V556.812C347.695 555.618 347.272 554.623 346.426 553.827C345.63 552.981 344.635 552.558 343.441 552.558H318.812ZM307.169 542.184H347.098C350.482 542.184 353.367 543.378 355.756 545.767C358.144 548.155 359.338 551.041 359.338 554.424V563.38C359.338 566.764 358.144 569.649 355.756 572.038C353.367 574.426 350.482 575.62 347.098 575.62H318.812V590.696H307.169V542.184ZM377.557 552.558V564.649H402.186C403.38 564.649 404.375 564.251 405.171 563.455C406.017 562.609 406.44 561.589 406.44 560.395V556.812C406.44 555.618 406.017 554.623 405.171 553.827C404.375 552.981 403.38 552.558 402.186 552.558H377.557ZM365.914 542.184H405.843C409.226 542.184 412.112 543.378 414.501 545.767C416.889 548.155 418.083 551.041 418.083 554.424V562.783C418.083 565.619 417.212 568.132 415.471 570.321C413.779 572.51 411.59 573.928 408.903 574.575L419.8 590.696H406.589L395.991 575.023H377.557V590.696H365.914V542.184ZM441.941 552.558C440.746 552.558 439.726 552.981 438.881 553.827C438.085 554.623 437.686 555.618 437.686 556.812V576.068C437.686 577.262 438.085 578.282 438.881 579.128C439.726 579.924 440.746 580.322 441.941 580.322H462.316C463.51 580.322 464.505 579.924 465.301 579.128C466.147 578.282 466.57 577.262 466.57 576.068V556.812C466.57 555.618 466.147 554.623 465.301 553.827C464.505 552.981 463.51 552.558 462.316 552.558H441.941ZM438.284 542.184H465.973C469.356 542.184 472.242 543.378 474.63 545.767C477.018 548.155 478.213 551.041 478.213 554.424V578.456C478.213 581.84 477.018 584.725 474.63 587.114C472.242 589.502 469.356 590.696 465.973 590.696H438.284C434.9 590.696 432.014 589.502 429.626 587.114C427.238 584.725 426.044 581.84 426.044 578.456V554.424C426.044 551.041 427.238 548.155 429.626 545.767C432.014 543.378 434.9 542.184 438.284 542.184ZM498.122 542.184H525.811C529.194 542.184 532.08 543.378 534.468 545.767C536.857 548.155 538.051 551.041 538.051 554.424V558.977H526.408V556.812C526.408 555.618 525.985 554.623 525.139 553.827C524.343 552.981 523.348 552.558 522.154 552.558H501.779C500.585 552.558 499.565 552.981 498.719 553.827C497.923 554.623 497.525 555.618 497.525 556.812V576.068C497.525 577.262 497.923 578.282 498.719 579.128C499.565 579.924 500.585 580.322 501.779 580.322H522.154C523.348 580.322 524.343 579.924 525.139 579.128C525.985 578.282 526.408 577.262 526.408 576.068V571.366H505.809V563.007H538.051V578.456C538.051 581.84 536.857 584.725 534.468 587.114C532.08 589.502 529.194 590.696 525.811 590.696H498.122C494.738 590.696 491.852 589.502 489.464 587.114C487.076 584.725 485.882 581.84 485.882 578.456V554.424C485.882 551.041 487.076 548.155 489.464 545.767C491.852 543.378 494.738 542.184 498.122 542.184ZM556.998 552.558V564.649H581.627C582.821 564.649 583.817 564.251 584.613 563.455C585.459 562.609 585.881 561.589 585.881 560.395V556.812C585.881 555.618 585.459 554.623 584.613 553.827C583.817 552.981 582.821 552.558 581.627 552.558H556.998ZM545.355 542.184H585.284C588.668 542.184 591.554 543.378 593.942 545.767C596.33 548.155 597.524 551.041 597.524 554.424V562.783C597.524 565.619 596.654 568.132 594.912 570.321C593.22 572.51 591.031 573.928 588.344 574.575L599.241 590.696H586.031L575.433 575.023H556.998V590.696H545.355V542.184ZM606.214 542.184H651.293V552.11H617.857V561.44H649.501V571.366H617.857V580.77H651.293V590.696H606.214V542.184ZM671.295 542.184H698.536C701.92 542.184 704.805 543.378 707.194 545.767C709.582 548.155 710.776 551.041 710.776 554.424V558.38H699.133V556.812C699.084 555.618 698.636 554.623 697.79 553.827C696.994 552.981 696.024 552.558 694.879 552.558H674.653C673.509 552.558 672.564 552.907 671.817 553.603C671.071 554.25 670.698 555.121 670.698 556.215V557.409C670.698 558.405 671.718 559.201 673.758 559.798C675.798 560.395 678.335 560.818 681.371 561.067C684.406 561.315 687.689 561.688 691.222 562.186C694.805 562.684 698.113 563.306 701.148 564.052C704.184 564.748 706.721 565.918 708.761 567.56C710.801 569.202 711.821 571.217 711.821 573.605V578.456C711.821 581.84 710.627 584.725 708.239 587.114C705.85 589.502 702.964 590.696 699.581 590.696H671.295C667.912 590.696 665.026 589.502 662.637 587.114C660.249 584.725 659.055 581.84 659.055 578.456V574.501H670.698V576.068C670.698 577.262 671.096 578.282 671.892 579.128C672.738 579.924 673.758 580.322 674.952 580.322H696.223C697.367 580.322 698.312 579.999 699.059 579.352C699.805 578.655 700.178 577.76 700.178 576.665V575.471C700.178 574.575 699.407 573.854 697.865 573.306C696.372 572.759 694.407 572.336 691.968 572.038C689.58 571.739 686.918 571.465 683.983 571.217C681.097 570.968 678.186 570.595 675.251 570.097C672.315 569.55 669.628 568.903 667.19 568.157C664.802 567.361 662.836 566.216 661.294 564.724C659.801 563.181 659.055 561.365 659.055 559.275V554.424C659.055 551.041 660.249 548.155 662.637 545.767C665.026 543.378 667.912 542.184 671.295 542.184ZM731.716 542.184H758.957C762.341 542.184 765.227 543.378 767.615 545.767C770.003 548.155 771.197 551.041 771.197 554.424V558.38H759.554V556.812C759.505 555.618 759.057 554.623 758.211 553.827C757.415 552.981 756.445 552.558 755.3 552.558H735.075C733.93 552.558 732.985 552.907 732.239 553.603C731.492 554.25 731.119 555.121 731.119 556.215V557.409C731.119 558.405 732.139 559.201 734.179 559.798C736.219 560.395 738.757 560.818 741.792 561.067C744.827 561.315 748.111 561.688 751.643 562.186C755.226 562.684 758.534 563.306 761.57 564.052C764.605 564.748 767.142 565.918 769.182 567.56C771.222 569.202 772.242 571.217 772.242 573.605V578.456C772.242 581.84 771.048 584.725 768.66 587.114C766.271 589.502 763.386 590.696 760.002 590.696H731.716C728.333 590.696 725.447 589.502 723.059 587.114C720.67 584.725 719.476 581.84 719.476 578.456V574.501H731.119V576.068C731.119 577.262 731.517 578.282 732.313 579.128C733.159 579.924 734.179 580.322 735.373 580.322H756.644C757.788 580.322 758.733 579.999 759.48 579.352C760.226 578.655 760.599 577.76 760.599 576.665V575.471C760.599 574.575 759.828 573.854 758.286 573.306C756.793 572.759 754.828 572.336 752.39 572.038C750.001 571.739 747.339 571.465 744.404 571.217C741.518 570.968 738.607 570.595 735.672 570.097C732.736 569.55 730.049 568.903 727.611 568.157C725.223 567.361 723.258 566.216 721.715 564.724C720.223 563.181 719.476 561.365 719.476 559.275V554.424C719.476 551.041 720.67 548.155 723.059 545.767C725.447 543.378 728.333 542.184 731.716 542.184Z" fill="black"/>
<path d="M373.931 487.184V480.927H367.674V487.184H373.931ZM385.574 487.184H391.831V480.927H385.574V487.184ZM385.574 525.77H379.317V532.027H385.574V525.77ZM419.01 525.77H425.267V519.513H419.01V525.77ZM419.01 535.696V541.953H425.267V535.696H419.01ZM373.931 535.696H367.674V541.953H373.931V535.696ZM373.931 487.184V493.441H385.574V487.184V480.927H373.931V487.184ZM385.574 487.184H379.317V525.77H385.574H391.831V487.184H385.574ZM385.574 525.77V532.027H419.01V525.77V519.513H385.574V525.77ZM419.01 525.77H412.753V535.696H419.01H425.267V525.77H419.01ZM419.01 535.696V529.439H373.931V535.696V541.953H419.01V535.696ZM373.931 535.696H380.188V487.184H373.931H367.674V535.696H373.931ZM437.35 498.827L432.926 494.403V494.403L437.35 498.827ZM437.35 524.128L432.794 528.416L432.924 528.554L433.062 528.684L437.35 524.128ZM463.77 524.128L459.346 519.703V519.703L463.77 524.128ZM463.77 498.827L459.214 503.115L459.344 503.254L459.482 503.384L463.77 498.827ZM473.1 490.767L468.675 495.191L468.675 495.191L473.1 490.767ZM473.1 532.114L468.675 527.689V527.689L473.1 532.114ZM428.095 532.114L423.671 536.538V536.538L428.095 532.114ZM428.095 490.767L432.52 495.191V495.191L428.095 490.767ZM440.41 497.558V491.301C437.553 491.301 434.943 492.386 432.926 494.403L437.35 498.827L441.775 503.252C441.666 503.36 441.456 503.527 441.146 503.655C440.836 503.784 440.568 503.815 440.41 503.815V497.558ZM437.35 498.827L432.926 494.403C430.879 496.449 429.899 499.07 429.899 501.812H436.156H442.413C442.413 501.921 442.393 502.173 442.264 502.494C442.133 502.823 441.945 503.081 441.775 503.252L437.35 498.827ZM436.156 501.812H429.899V521.068H436.156H442.413V501.812H436.156ZM436.156 521.068H429.899C429.899 523.806 430.872 526.374 432.794 528.416L437.35 524.128L441.907 519.839C442.024 519.964 442.174 520.173 442.283 520.454C442.392 520.732 442.413 520.957 442.413 521.068H436.156ZM437.35 524.128L433.062 528.684C435.104 530.606 437.672 531.579 440.41 531.579V525.322V519.065C440.52 519.065 440.746 519.086 441.024 519.194C441.305 519.304 441.514 519.454 441.638 519.571L437.35 524.128ZM440.41 525.322V531.579H460.785V525.322V519.065H440.41V525.322ZM460.785 525.322V531.579C463.527 531.579 466.149 530.599 468.195 528.552L463.77 524.128L459.346 519.703C459.516 519.533 459.774 519.345 460.103 519.214C460.424 519.085 460.677 519.065 460.785 519.065V525.322ZM463.77 524.128L468.195 528.552C470.212 526.535 471.296 523.925 471.296 521.068H465.039H458.782C458.782 520.91 458.814 520.642 458.942 520.332C459.07 520.022 459.237 519.812 459.346 519.703L463.77 524.128ZM465.039 521.068H471.296V501.812H465.039H458.782V521.068H465.039ZM465.039 501.812H471.296C471.296 498.948 470.2 496.286 468.059 494.271L463.77 498.827L459.482 503.384C459.322 503.233 459.115 502.975 458.963 502.618C458.813 502.264 458.782 501.968 458.782 501.812H465.039ZM463.77 498.827L468.327 494.539C466.311 492.397 463.65 491.301 460.785 491.301V497.558V503.815C460.629 503.815 460.333 503.784 459.98 503.634C459.622 503.482 459.365 503.276 459.214 503.115L463.77 498.827ZM460.785 497.558V491.301H440.41V497.558V503.815H460.785V497.558ZM436.753 487.184V493.441H464.442V487.184V480.927H436.753V487.184ZM464.442 487.184V493.441C466.169 493.441 467.463 493.979 468.675 495.191L473.1 490.767L477.524 486.342C473.96 482.778 469.482 480.927 464.442 480.927V487.184ZM473.1 490.767L468.675 495.191C469.888 496.404 470.425 497.697 470.425 499.424H476.682H482.939C482.939 494.384 481.088 489.906 477.524 486.342L473.1 490.767ZM476.682 499.424H470.425V523.456H476.682H482.939V499.424H476.682ZM476.682 523.456H470.425C470.425 525.183 469.888 526.477 468.675 527.689L473.1 532.114L477.524 536.538C481.088 532.974 482.939 528.496 482.939 523.456H476.682ZM473.1 532.114L468.675 527.689C467.463 528.902 466.169 529.439 464.442 529.439V535.696V541.953C469.482 541.953 473.96 540.102 477.524 536.538L473.1 532.114ZM464.442 535.696V529.439H436.753V535.696V541.953H464.442V535.696ZM436.753 535.696V529.439C435.026 529.439 433.733 528.902 432.52 527.689L428.095 532.114L423.671 536.538C427.235 540.102 431.713 541.953 436.753 541.953V535.696ZM428.095 532.114L432.52 527.689C431.307 526.477 430.77 525.183 430.77 523.456H424.513H418.256C418.256 528.496 420.107 532.974 423.671 536.538L428.095 532.114ZM424.513 523.456H430.77V499.424H424.513H418.256V523.456H424.513ZM424.513 499.424H430.77C430.77 497.697 431.307 496.404 432.52 495.191L428.095 490.767L423.671 486.342C420.107 489.906 418.256 494.384 418.256 499.424H424.513ZM428.095 490.767L432.52 495.191C433.733 493.979 435.026 493.441 436.753 493.441V487.184V480.927C431.713 480.927 427.235 482.778 423.671 486.342L428.095 490.767ZM532.938 490.767L528.513 495.191L528.513 495.191L532.938 490.767ZM536.52 503.977V510.234H542.777V503.977H536.52ZM524.877 503.977H518.62V510.234H524.877V503.977ZM523.608 498.827L519.052 503.115L519.182 503.254L519.32 503.384L523.608 498.827ZM497.188 498.827L492.764 494.403V494.403L497.188 498.827ZM497.188 524.128L492.632 528.416L492.762 528.554L492.9 528.684L497.188 524.128ZM523.608 524.128L519.184 519.703L519.184 519.703L523.608 524.128ZM524.877 516.366H531.134V510.109H524.877V516.366ZM504.278 516.366H498.021V522.623H504.278V516.366ZM504.278 508.007V501.75H498.021V508.007H504.278ZM536.52 508.007H542.777V501.75H536.52V508.007ZM532.938 532.114L528.513 527.689V527.689L532.938 532.114ZM487.934 532.114L483.509 536.538V536.538L487.934 532.114ZM487.934 490.767L492.358 495.191V495.191L487.934 490.767ZM496.591 487.184V493.441H524.28V487.184V480.927H496.591V487.184ZM524.28 487.184V493.441C526.007 493.441 527.301 493.979 528.513 495.191L532.938 490.767L537.362 486.342C533.798 482.778 529.32 480.927 524.28 480.927V487.184ZM532.938 490.767L528.513 495.191C529.726 496.404 530.263 497.697 530.263 499.424H536.52H542.777C542.777 494.384 540.926 489.906 537.362 486.342L532.938 490.767ZM536.52 499.424H530.263V503.977H536.52H542.777V499.424H536.52ZM536.52 503.977V497.72H524.877V503.977V510.234H536.52V503.977ZM524.877 503.977H531.134V501.812H524.877H518.62V503.977H524.877ZM524.877 501.812H531.134C531.134 498.948 530.038 496.286 527.897 494.271L523.608 498.827L519.32 503.384C519.16 503.233 518.953 502.975 518.801 502.618C518.651 502.264 518.62 501.968 518.62 501.812H524.877ZM523.608 498.827L528.165 494.539C526.149 492.397 523.488 491.301 520.623 491.301V497.558V503.815C520.467 503.815 520.171 503.784 519.818 503.634C519.46 503.482 519.203 503.276 519.052 503.115L523.608 498.827ZM520.623 497.558V491.301H500.248V497.558V503.815H520.623V497.558ZM500.248 497.558V491.301C497.391 491.301 494.781 492.386 492.764 494.403L497.188 498.827L501.613 503.252C501.504 503.36 501.294 503.527 500.984 503.655C500.674 503.784 500.406 503.815 500.248 503.815V497.558ZM497.188 498.827L492.764 494.403C490.717 496.449 489.737 499.07 489.737 501.812H495.994H502.251C502.251 501.921 502.231 502.173 502.102 502.494C501.971 502.823 501.783 503.081 501.613 503.252L497.188 498.827ZM495.994 501.812H489.737V521.068H495.994H502.251V501.812H495.994ZM495.994 521.068H489.737C489.737 523.806 490.71 526.374 492.632 528.416L497.188 524.128L501.745 519.839C501.862 519.964 502.012 520.173 502.122 520.454C502.23 520.732 502.251 520.957 502.251 521.068H495.994ZM497.188 524.128L492.9 528.684C494.942 530.606 497.51 531.579 500.248 531.579V525.322V519.065C500.359 519.065 500.584 519.086 500.862 519.194C501.143 519.304 501.352 519.454 501.477 519.571L497.188 524.128ZM500.248 525.322V531.579H520.623V525.322V519.065H500.248V525.322ZM520.623 525.322V531.579C523.365 531.579 525.987 530.599 528.033 528.552L523.608 524.128L519.184 519.703C519.354 519.533 519.613 519.345 519.941 519.214C520.263 519.085 520.515 519.065 520.623 519.065V525.322ZM523.608 524.128L528.033 528.552C530.05 526.535 531.134 523.925 531.134 521.068H524.877H518.62C518.62 520.91 518.652 520.642 518.78 520.332C518.908 520.022 519.075 519.812 519.184 519.703L523.608 524.128ZM524.877 521.068H531.134V516.366H524.877H518.62V521.068H524.877ZM524.877 516.366V510.109H504.278V516.366V522.623H524.877V516.366ZM504.278 516.366H510.535V508.007H504.278H498.021V516.366H504.278ZM504.278 508.007V514.264H536.52V508.007V501.75H504.278V508.007ZM536.52 508.007H530.263V523.456H536.52H542.777V508.007H536.52ZM536.52 523.456H530.263C530.263 525.183 529.726 526.477 528.513 527.689L532.938 532.114L537.362 536.538C540.926 532.974 542.777 528.496 542.777 523.456H536.52ZM532.938 532.114L528.513 527.689C527.301 528.902 526.007 529.439 524.28 529.439V535.696V541.953C529.32 541.953 533.798 540.102 537.362 536.538L532.938 532.114ZM524.28 535.696V529.439H496.591V535.696V541.953H524.28V535.696ZM496.591 535.696V529.439C494.864 529.439 493.571 528.902 492.358 527.689L487.934 532.114L483.509 536.538C487.073 540.102 491.551 541.953 496.591 541.953V535.696ZM487.934 532.114L492.358 527.689C491.146 526.477 490.608 525.183 490.608 523.456H484.351H478.094C478.094 528.496 479.945 532.974 483.509 536.538L487.934 532.114ZM484.351 523.456H490.608V499.424H484.351H478.094V523.456H484.351ZM484.351 499.424H490.608C490.608 497.697 491.146 496.404 492.358 495.191L487.934 490.767L483.509 486.342C479.945 489.906 478.094 494.384 478.094 499.424H484.351ZM487.934 490.767L492.358 495.191C493.571 493.979 494.864 493.441 496.591 493.441V487.184V480.927C491.551 480.927 487.073 482.778 483.509 486.342L487.934 490.767ZM557.026 498.827L552.602 494.403V494.403L557.026 498.827ZM557.026 524.128L552.47 528.416L552.6 528.554L552.738 528.684L557.026 524.128ZM583.447 524.128L579.022 519.703V519.703L583.447 524.128ZM583.447 498.827L578.89 503.115L579.02 503.254L579.158 503.384L583.447 498.827ZM592.776 490.767L588.351 495.191V495.191L592.776 490.767ZM592.776 532.114L588.351 527.689V527.689L592.776 532.114ZM547.772 532.114L543.347 536.538V536.538L547.772 532.114ZM547.772 490.767L552.196 495.191V495.191L547.772 490.767ZM560.086 497.558V491.301C557.229 491.301 554.619 492.386 552.602 494.403L557.026 498.827L561.451 503.252C561.342 503.36 561.132 503.527 560.822 503.655C560.512 503.784 560.244 503.815 560.086 503.815V497.558ZM557.026 498.827L552.602 494.403C550.556 496.449 549.575 499.07 549.575 501.812H555.832H562.089C562.089 501.921 562.069 502.173 561.94 502.494C561.809 502.823 561.621 503.081 561.451 503.252L557.026 498.827ZM555.832 501.812H549.575V521.068H555.832H562.089V501.812H555.832ZM555.832 521.068H549.575C549.575 523.806 550.548 526.374 552.47 528.416L557.026 524.128L561.583 519.839C561.7 519.964 561.85 520.173 561.96 520.454C562.068 520.732 562.089 520.957 562.089 521.068H555.832ZM557.026 524.128L552.738 528.684C554.78 530.606 557.348 531.579 560.086 531.579V525.322V519.065C560.197 519.065 560.422 519.086 560.7 519.194C560.982 519.304 561.19 519.454 561.315 519.571L557.026 524.128ZM560.086 525.322V531.579H580.461V525.322V519.065H560.086V525.322ZM580.461 525.322V531.579C583.203 531.579 585.825 530.599 587.871 528.552L583.447 524.128L579.022 519.703C579.192 519.533 579.451 519.345 579.779 519.214C580.101 519.085 580.353 519.065 580.461 519.065V525.322ZM583.447 524.128L587.871 528.552C589.888 526.535 590.972 523.925 590.972 521.068H584.715H578.458C578.458 520.91 578.49 520.642 578.618 520.332C578.746 520.022 578.913 519.812 579.022 519.703L583.447 524.128ZM584.715 521.068H590.972V501.812H584.715H578.458V521.068H584.715ZM584.715 501.812H590.972C590.972 498.948 589.876 496.286 587.735 494.271L583.447 498.827L579.158 503.384C578.998 503.233 578.791 502.975 578.639 502.618C578.489 502.264 578.458 501.968 578.458 501.812H584.715ZM583.447 498.827L588.003 494.539C585.987 492.397 583.326 491.301 580.461 491.301V497.558V503.815C580.305 503.815 580.009 503.784 579.656 503.634C579.298 503.482 579.041 503.276 578.89 503.115L583.447 498.827ZM580.461 497.558V491.301H560.086V497.558V503.815H580.461V497.558ZM556.429 487.184V493.441H584.118V487.184V480.927H556.429V487.184ZM584.118 487.184V493.441C585.845 493.441 587.139 493.979 588.351 495.191L592.776 490.767L597.2 486.342C593.636 482.778 589.158 480.927 584.118 480.927V487.184ZM592.776 490.767L588.351 495.191C589.564 496.404 590.101 497.697 590.101 499.424H596.358H602.615C602.615 494.384 600.764 489.906 597.2 486.342L592.776 490.767ZM596.358 499.424H590.101V523.456H596.358H602.615V499.424H596.358ZM596.358 523.456H590.101C590.101 525.183 589.564 526.477 588.351 527.689L592.776 532.114L597.2 536.538C600.764 532.974 602.615 528.496 602.615 523.456H596.358ZM592.776 532.114L588.351 527.689C587.139 528.902 585.845 529.439 584.118 529.439V535.696V541.953C589.158 541.953 593.636 540.102 597.2 536.538L592.776 532.114ZM584.118 535.696V529.439H556.429V535.696V541.953H584.118V535.696ZM556.429 535.696V529.439C554.702 529.439 553.409 528.902 552.196 527.689L547.772 532.114L543.347 536.538C546.911 540.102 551.39 541.953 556.429 541.953V535.696ZM547.772 532.114L552.196 527.689C550.984 526.477 550.446 525.183 550.446 523.456H544.189H537.932C537.932 528.496 539.783 532.974 543.347 536.538L547.772 532.114ZM544.189 523.456H550.446V499.424H544.189H537.932V523.456H544.189ZM544.189 499.424H550.446C550.446 497.697 550.984 496.404 552.196 495.191L547.772 490.767L543.347 486.342C539.783 489.906 537.932 494.384 537.932 499.424H544.189ZM547.772 490.767L552.196 495.191C553.409 493.979 554.702 493.441 556.429 493.441V487.184V480.927C551.39 480.927 546.911 482.778 543.347 486.342L547.772 490.767ZM633.91 487.184V480.927H627.653V487.184H633.91ZM645.553 487.184H651.81V480.927H645.553V487.184ZM645.553 535.696V541.953H651.81V535.696H645.553ZM633.91 535.696H627.653V541.953H633.91V535.696ZM633.91 487.184V493.441H645.553V487.184V480.927H633.91V487.184ZM645.553 487.184H639.296V535.696H645.553H651.81V487.184H645.553ZM645.553 535.696V529.439H633.91V535.696V541.953H645.553V535.696ZM633.91 535.696H640.167V487.184H633.91H627.653V535.696H633.91ZM653.297 487.184V480.927H647.04V487.184H653.297ZM666.209 487.184L671.051 483.221L669.173 480.927H666.209V487.184ZM693.823 520.919L688.981 524.882L700.08 538.441V520.919H693.823ZM693.823 487.184V480.927H687.566V487.184H693.823ZM705.466 487.184H711.723V480.927H705.466V487.184ZM705.466 535.696V541.953H711.723V535.696H705.466ZM692.554 535.696L687.713 539.659L689.59 541.953H692.554V535.696ZM664.94 501.962L669.782 497.998L658.683 484.439V501.962H664.94ZM664.94 535.696V541.953H671.197V535.696H664.94ZM653.297 535.696H647.04V541.953H653.297V535.696ZM653.297 487.184V493.441H666.209V487.184V480.927H653.297V487.184ZM666.209 487.184L661.367 491.148L688.981 524.882L693.823 520.919L698.665 516.955L671.051 483.221L666.209 487.184ZM693.823 520.919H700.08V487.184H693.823H687.566V520.919H693.823ZM693.823 487.184V493.441H705.466V487.184V480.927H693.823V487.184ZM705.466 487.184H699.209V535.696H705.466H711.723V487.184H705.466ZM705.466 535.696V529.439H692.554V535.696V541.953H705.466V535.696ZM692.554 535.696L697.396 531.733L669.782 497.998L664.94 501.962L660.098 505.925L687.713 539.659L692.554 535.696ZM664.94 501.962H658.683V535.696H664.94H671.197V501.962H664.94ZM664.94 535.696V529.439H653.297V535.696V541.953H664.94V535.696ZM653.297 535.696H659.554V487.184H653.297H647.04V535.696H653.297ZM318.812 552.558V546.301H312.555V552.558H318.812ZM318.812 565.246H312.555V571.503H318.812V565.246ZM346.426 564.052L342.002 559.627L346.426 564.052ZM346.426 553.827L341.87 558.115L342 558.254L342.138 558.383L346.426 553.827ZM307.169 542.184V535.927H300.912V542.184H307.169ZM355.756 545.767L351.331 550.191L351.331 550.191L355.756 545.767ZM355.756 572.038L351.331 567.613V567.613L355.756 572.038ZM318.812 575.62V569.363H312.555V575.62H318.812ZM318.812 590.696V596.953H325.069V590.696H318.812ZM307.169 590.696H300.912V596.953H307.169V590.696ZM318.812 552.558H312.555V565.246H318.812H325.069V552.558H318.812ZM318.812 565.246V571.503H343.441V565.246V558.989H318.812V565.246ZM343.441 565.246V571.503C346.183 571.503 348.805 570.523 350.851 568.476L346.426 564.052L342.002 559.627C342.172 559.457 342.431 559.269 342.759 559.138C343.081 559.009 343.333 558.989 343.441 558.989V565.246ZM346.426 564.052L350.851 568.476C352.868 566.459 353.952 563.849 353.952 560.992H347.695H341.438C341.438 560.834 341.47 560.566 341.598 560.256C341.726 559.946 341.893 559.736 342.002 559.627L346.426 564.052ZM347.695 560.992H353.952V556.812H347.695H341.438V560.992H347.695ZM347.695 556.812H353.952C353.952 553.948 352.856 551.286 350.715 549.271L346.426 553.827L342.138 558.383C341.978 558.233 341.771 557.975 341.619 557.618C341.469 557.264 341.438 556.968 341.438 556.812H347.695ZM346.426 553.827L350.983 549.539C348.967 547.397 346.306 546.301 343.441 546.301V552.558V558.815C343.285 558.815 342.989 558.784 342.636 558.634C342.278 558.482 342.021 558.276 341.87 558.115L346.426 553.827ZM343.441 552.558V546.301H318.812V552.558V558.815H343.441V552.558ZM307.169 542.184V548.441H347.098V542.184V535.927H307.169V542.184ZM347.098 542.184V548.441C348.825 548.441 350.119 548.979 351.331 550.191L355.756 545.767L360.18 541.342C356.616 537.778 352.138 535.927 347.098 535.927V542.184ZM355.756 545.767L351.331 550.191C352.544 551.404 353.081 552.697 353.081 554.424H359.338H365.595C365.595 549.384 363.744 544.906 360.18 541.342L355.756 545.767ZM359.338 554.424H353.081V563.38H359.338H365.595V554.424H359.338ZM359.338 563.38H353.081C353.081 565.107 352.544 566.401 351.331 567.613L355.756 572.038L360.18 576.462C363.744 572.898 365.595 568.42 365.595 563.38H359.338ZM355.756 572.038L351.331 567.613C350.119 568.826 348.825 569.363 347.098 569.363V575.62V581.877C352.138 581.877 356.616 580.026 360.18 576.462L355.756 572.038ZM347.098 575.62V569.363H318.812V575.62V581.877H347.098V575.62ZM318.812 575.62H312.555V590.696H318.812H325.069V575.62H318.812ZM318.812 590.696V584.439H307.169V590.696V596.953H318.812V590.696ZM307.169 590.696H313.426V542.184H307.169H300.912V590.696H307.169ZM377.557 552.558V546.301H371.3V552.558H377.557ZM377.557 564.649H371.3V570.906H377.557V564.649ZM405.171 563.455L400.747 559.03V559.03L405.171 563.455ZM405.171 553.827L400.615 558.115L400.745 558.254L400.883 558.383L405.171 553.827ZM365.914 542.184V535.927H359.657V542.184H365.914ZM414.501 545.767L410.076 550.191L410.076 550.191L414.501 545.767ZM415.471 570.321L410.574 566.426L410.546 566.46L410.52 566.495L415.471 570.321ZM408.903 574.575L407.438 568.492L398.666 570.604L403.719 578.079L408.903 574.575ZM419.8 590.696V596.953H431.581L424.984 587.192L419.8 590.696ZM406.589 590.696L401.406 594.201L403.267 596.953H406.589V590.696ZM395.991 575.023L401.175 571.518L399.314 568.766H395.991V575.023ZM377.557 575.023V568.766H371.3V575.023H377.557ZM377.557 590.696V596.953H383.814V590.696H377.557ZM365.914 590.696H359.657V596.953H365.914V590.696ZM377.557 552.558H371.3V564.649H377.557H383.814V552.558H377.557ZM377.557 564.649V570.906H402.186V564.649V558.392H377.557V564.649ZM402.186 564.649V570.906C404.928 570.906 407.55 569.925 409.596 567.879L405.171 563.455L400.747 559.03C400.917 558.86 401.175 558.672 401.504 558.541C401.825 558.412 402.078 558.392 402.186 558.392V564.649ZM405.171 563.455L409.596 567.879C411.613 565.862 412.697 563.252 412.697 560.395H406.44H400.183C400.183 560.237 400.214 559.969 400.343 559.659C400.471 559.349 400.638 559.139 400.747 559.03L405.171 563.455ZM406.44 560.395H412.697V556.812H406.44H400.183V560.395H406.44ZM406.44 556.812H412.697C412.697 553.948 411.601 551.286 409.46 549.271L405.171 553.827L400.883 558.383C400.723 558.233 400.516 557.975 400.364 557.618C400.214 557.264 400.183 556.968 400.183 556.812H406.44ZM405.171 553.827L409.728 549.539C407.712 547.397 405.051 546.301 402.186 546.301V552.558V558.815C402.03 558.815 401.734 558.784 401.38 558.634C401.023 558.482 400.766 558.276 400.615 558.115L405.171 553.827ZM402.186 552.558V546.301H377.557V552.558V558.815H402.186V552.558ZM365.914 542.184V548.441H405.843V542.184V535.927H365.914V542.184ZM405.843 542.184V548.441C407.57 548.441 408.863 548.979 410.076 550.191L414.501 545.767L418.925 541.342C415.361 537.778 410.883 535.927 405.843 535.927V542.184ZM414.501 545.767L410.076 550.191C411.289 551.404 411.826 552.697 411.826 554.424H418.083H424.34C424.34 549.384 422.489 544.906 418.925 541.342L414.501 545.767ZM418.083 554.424H411.826V562.783H418.083H424.34V554.424H418.083ZM418.083 562.783H411.826C411.826 564.226 411.421 565.36 410.574 566.426L415.471 570.321L420.368 574.216C423.003 570.903 424.34 567.013 424.34 562.783H418.083ZM415.471 570.321L410.52 566.495C409.698 567.558 408.738 568.179 407.438 568.492L408.903 574.575L410.368 580.659C414.441 579.678 417.86 577.462 420.422 574.147L415.471 570.321ZM408.903 574.575L403.719 578.079L414.616 594.2L419.8 590.696L424.984 587.192L414.087 571.071L408.903 574.575ZM419.8 590.696V584.439H406.589V590.696V596.953H419.8V590.696ZM406.589 590.696L411.773 587.191L401.175 571.518L395.991 575.023L390.808 578.528L401.406 594.201L406.589 590.696ZM395.991 575.023V568.766H377.557V575.023V581.28H395.991V575.023ZM377.557 575.023H371.3V590.696H377.557H383.814V575.023H377.557ZM377.557 590.696V584.439H365.914V590.696V596.953H377.557V590.696ZM365.914 590.696H372.171V542.184H365.914H359.657V590.696H365.914ZM438.881 553.827L434.456 549.403V549.403L438.881 553.827ZM438.881 579.128L434.324 583.416L434.454 583.554L434.592 583.684L438.881 579.128ZM465.301 579.128L460.876 574.703V574.703L465.301 579.128ZM465.301 553.827L460.744 558.115L460.874 558.254L461.012 558.383L465.301 553.827ZM474.63 545.767L470.206 550.191V550.191L474.63 545.767ZM474.63 587.114L470.206 582.689V582.689L474.63 587.114ZM429.626 587.114L425.202 591.538V591.538L429.626 587.114ZM429.626 545.767L434.051 550.191V550.191L429.626 545.767ZM441.941 552.558V546.301C439.084 546.301 436.473 547.386 434.456 549.403L438.881 553.827L443.305 558.252C443.196 558.36 442.986 558.527 442.677 558.655C442.367 558.784 442.098 558.815 441.941 558.815V552.558ZM438.881 553.827L434.456 549.403C432.41 551.449 431.429 554.07 431.429 556.812H437.686H443.944C443.944 556.921 443.923 557.173 443.795 557.494C443.663 557.823 443.475 558.081 443.305 558.252L438.881 553.827ZM437.686 556.812H431.429V576.068H437.686H443.944V556.812H437.686ZM437.686 576.068H431.429C431.429 578.806 432.402 581.374 434.324 583.416L438.881 579.128L443.437 574.839C443.554 574.964 443.704 575.173 443.814 575.454C443.923 575.732 443.944 575.957 443.944 576.068H437.686ZM438.881 579.128L434.592 583.684C436.634 585.606 439.202 586.579 441.941 586.579V580.322V574.065C442.051 574.065 442.277 574.086 442.555 574.194C442.836 574.304 443.044 574.454 443.169 574.571L438.881 579.128ZM441.941 580.322V586.579H462.316V580.322V574.065H441.941V580.322ZM462.316 580.322V586.579C465.058 586.579 467.679 585.599 469.725 583.552L465.301 579.128L460.876 574.703C461.047 574.533 461.305 574.345 461.634 574.214C461.955 574.085 462.207 574.065 462.316 574.065V580.322ZM465.301 579.128L469.725 583.552C471.742 581.535 472.827 578.925 472.827 576.068H466.57H460.313C460.313 575.91 460.344 575.642 460.473 575.332C460.601 575.022 460.768 574.812 460.876 574.703L465.301 579.128ZM466.57 576.068H472.827V556.812H466.57H460.313V576.068H466.57ZM466.57 556.812H472.827C472.827 553.948 471.731 551.286 469.589 549.271L465.301 553.827L461.012 558.383C460.852 558.233 460.646 557.975 460.494 557.618C460.344 557.264 460.313 556.968 460.313 556.812H466.57ZM465.301 553.827L469.857 549.539C467.842 547.397 465.18 546.301 462.316 546.301V552.558V558.815C462.16 558.815 461.864 558.784 461.51 558.634C461.153 558.482 460.895 558.276 460.744 558.115L465.301 553.827ZM462.316 552.558V546.301H441.941V552.558V558.815H462.316V552.558ZM438.284 542.184V548.441H465.973V542.184V535.927H438.284V542.184ZM465.973 542.184V548.441C467.7 548.441 468.993 548.979 470.206 550.191L474.63 545.767L479.055 541.342C475.491 537.778 471.012 535.927 465.973 535.927V542.184ZM474.63 545.767L470.206 550.191C471.418 551.404 471.955 552.697 471.955 554.424H478.213H484.47C484.47 549.384 482.619 544.906 479.055 541.342L474.63 545.767ZM478.213 554.424H471.955V578.456H478.213H484.47V554.424H478.213ZM478.213 578.456H471.955C471.955 580.183 471.418 581.477 470.206 582.689L474.63 587.114L479.055 591.538C482.619 587.974 484.47 583.496 484.47 578.456H478.213ZM474.63 587.114L470.206 582.689C468.993 583.902 467.7 584.439 465.973 584.439V590.696V596.953C471.012 596.953 475.491 595.102 479.055 591.538L474.63 587.114ZM465.973 590.696V584.439H438.284V590.696V596.953H465.973V590.696ZM438.284 590.696V584.439C436.556 584.439 435.263 583.902 434.051 582.689L429.626 587.114L425.202 591.538C428.766 595.102 433.244 596.953 438.284 596.953V590.696ZM429.626 587.114L434.051 582.689C432.838 581.477 432.301 580.183 432.301 578.456H426.044H419.786C419.786 583.496 421.638 587.974 425.202 591.538L429.626 587.114ZM426.044 578.456H432.301V554.424H426.044H419.786V578.456H426.044ZM426.044 554.424H432.301C432.301 552.697 432.838 551.404 434.051 550.191L429.626 545.767L425.202 541.342C421.638 544.906 419.786 549.384 419.786 554.424H426.044ZM429.626 545.767L434.051 550.191C435.263 548.979 436.556 548.441 438.284 548.441V542.184V535.927C433.244 535.927 428.766 537.778 425.202 541.342L429.626 545.767ZM534.468 545.767L530.044 550.191L530.044 550.191L534.468 545.767ZM538.051 558.977V565.234H544.308V558.977H538.051ZM526.408 558.977H520.151V565.234H526.408V558.977ZM525.139 553.827L520.583 558.115L520.713 558.254L520.851 558.383L525.139 553.827ZM498.719 553.827L494.294 549.403V549.403L498.719 553.827ZM498.719 579.128L494.162 583.416L494.292 583.554L494.43 583.684L498.719 579.128ZM525.139 579.128L520.715 574.703H520.715L525.139 579.128ZM526.408 571.366H532.665V565.109H526.408V571.366ZM505.809 571.366H499.552V577.623H505.809V571.366ZM505.809 563.007V556.75H499.552V563.007H505.809ZM538.051 563.007H544.308V556.75H538.051V563.007ZM534.468 587.114L530.044 582.689V582.689L534.468 587.114ZM489.464 587.114L485.04 591.538V591.538L489.464 587.114ZM489.464 545.767L493.889 550.191V550.191L489.464 545.767ZM498.122 542.184V548.441H525.811V542.184V535.927H498.122V542.184ZM525.811 542.184V548.441C527.538 548.441 528.831 548.979 530.044 550.191L534.468 545.767L538.893 541.342C535.329 537.778 530.85 535.927 525.811 535.927V542.184ZM534.468 545.767L530.044 550.191C531.256 551.404 531.793 552.697 531.793 554.424H538.051H544.308C544.308 549.384 542.457 544.906 538.893 541.342L534.468 545.767ZM538.051 554.424H531.793V558.977H538.051H544.308V554.424H538.051ZM538.051 558.977V552.72H526.408V558.977V565.234H538.051V558.977ZM526.408 558.977H532.665V556.812H526.408H520.151V558.977H526.408ZM526.408 556.812H532.665C532.665 553.948 531.569 551.286 529.427 549.271L525.139 553.827L520.851 558.383C520.69 558.233 520.484 557.975 520.332 557.618C520.182 557.264 520.151 556.968 520.151 556.812H526.408ZM525.139 553.827L529.695 549.539C527.68 547.397 525.018 546.301 522.154 546.301V552.558V558.815C521.998 558.815 521.702 558.784 521.348 558.634C520.991 558.482 520.733 558.276 520.583 558.115L525.139 553.827ZM522.154 552.558V546.301H501.779V552.558V558.815H522.154V552.558ZM501.779 552.558V546.301C498.922 546.301 496.311 547.386 494.294 549.403L498.719 553.827L503.143 558.252C503.034 558.36 502.824 558.527 502.515 558.655C502.205 558.784 501.937 558.815 501.779 558.815V552.558ZM498.719 553.827L494.294 549.403C492.248 551.449 491.267 554.07 491.267 556.812H497.525H503.782C503.782 556.921 503.761 557.173 503.633 557.494C503.501 557.823 503.314 558.081 503.143 558.252L498.719 553.827ZM497.525 556.812H491.267V576.068H497.525H503.782V556.812H497.525ZM497.525 576.068H491.267C491.267 578.806 492.24 581.374 494.162 583.416L498.719 579.128L503.275 574.839C503.393 574.964 503.542 575.173 503.652 575.454C503.761 575.732 503.782 575.957 503.782 576.068H497.525ZM498.719 579.128L494.43 583.684C496.472 585.606 499.04 586.579 501.779 586.579V580.322V574.065C501.889 574.065 502.115 574.086 502.393 574.194C502.674 574.304 502.882 574.454 503.007 574.571L498.719 579.128ZM501.779 580.322V586.579H522.154V580.322V574.065H501.779V580.322ZM522.154 580.322V586.579C524.896 586.579 527.517 585.599 529.564 583.552L525.139 579.128L520.715 574.703C520.885 574.533 521.143 574.345 521.472 574.214C521.793 574.085 522.045 574.065 522.154 574.065V580.322ZM525.139 579.128L529.563 583.552C531.58 581.535 532.665 578.925 532.665 576.068H526.408H520.151C520.151 575.91 520.182 575.642 520.311 575.332C520.439 575.022 520.606 574.812 520.715 574.703L525.139 579.128ZM526.408 576.068H532.665V571.366H526.408H520.151V576.068H526.408ZM526.408 571.366V565.109H505.809V571.366V577.623H526.408V571.366ZM505.809 571.366H512.066V563.007H505.809H499.552V571.366H505.809ZM505.809 563.007V569.264H538.051V563.007V556.75H505.809V563.007ZM538.051 563.007H531.793V578.456H538.051H544.308V563.007H538.051ZM538.051 578.456H531.793C531.793 580.183 531.256 581.477 530.044 582.689L534.468 587.114L538.893 591.538C542.457 587.974 544.308 583.496 544.308 578.456H538.051ZM534.468 587.114L530.044 582.689C528.831 583.902 527.538 584.439 525.811 584.439V590.696V596.953C530.85 596.953 535.329 595.102 538.893 591.538L534.468 587.114ZM525.811 590.696V584.439H498.122V590.696V596.953H525.811V590.696ZM498.122 590.696V584.439C496.395 584.439 495.101 583.902 493.889 582.689L489.464 587.114L485.04 591.538C488.604 595.102 493.082 596.953 498.122 596.953V590.696ZM489.464 587.114L493.889 582.689C492.676 581.477 492.139 580.183 492.139 578.456H485.882H479.625C479.625 583.496 481.476 587.974 485.04 591.538L489.464 587.114ZM485.882 578.456H492.139V554.424H485.882H479.625V578.456H485.882ZM485.882 554.424H492.139C492.139 552.697 492.676 551.404 493.889 550.191L489.464 545.767L485.04 541.342C481.476 544.906 479.625 549.384 479.625 554.424H485.882ZM489.464 545.767L493.889 550.191C495.101 548.979 496.395 548.441 498.122 548.441V542.184V535.927C493.082 535.927 488.604 537.778 485.04 541.342L489.464 545.767ZM556.998 552.558V546.301H550.741V552.558H556.998ZM556.998 564.649H550.741V570.906H556.998V564.649ZM584.613 563.455L580.188 559.03V559.03L584.613 563.455ZM584.613 553.827L580.056 558.115L580.186 558.254L580.324 558.383L584.613 553.827ZM545.355 542.184V535.927H539.098V542.184H545.355ZM593.942 545.767L589.517 550.191V550.191L593.942 545.767ZM594.912 570.321L590.015 566.426L589.988 566.46L589.961 566.495L594.912 570.321ZM588.344 574.575L586.88 568.492L578.107 570.604L583.16 578.079L588.344 574.575ZM599.241 590.696V596.953H611.023L604.425 587.192L599.241 590.696ZM586.031 590.696L580.847 594.201L582.708 596.953H586.031V590.696ZM575.433 575.023L580.616 571.518L578.755 568.766H575.433V575.023ZM556.998 575.023V568.766H550.741V575.023H556.998ZM556.998 590.696V596.953H563.255V590.696H556.998ZM545.355 590.696H539.098V596.953H545.355V590.696ZM556.998 552.558H550.741V564.649H556.998H563.255V552.558H556.998ZM556.998 564.649V570.906H581.627V564.649V558.392H556.998V564.649ZM581.627 564.649V570.906C584.369 570.906 586.991 569.925 589.037 567.879L584.613 563.455L580.188 559.03C580.359 558.86 580.617 558.672 580.945 558.541C581.267 558.412 581.519 558.392 581.627 558.392V564.649ZM584.613 563.455L589.037 567.879C591.054 565.862 592.139 563.252 592.139 560.395H585.881H579.624C579.624 560.237 579.656 559.969 579.784 559.659C579.913 559.349 580.079 559.139 580.188 559.03L584.613 563.455ZM585.881 560.395H592.139V556.812H585.881H579.624V560.395H585.881ZM585.881 556.812H592.139C592.139 553.948 591.043 551.286 588.901 549.271L584.613 553.827L580.324 558.383C580.164 558.233 579.958 557.975 579.806 557.618C579.655 557.264 579.624 556.968 579.624 556.812H585.881ZM584.613 553.827L589.169 549.539C587.154 547.397 584.492 546.301 581.627 546.301V552.558V558.815C581.472 558.815 581.176 558.784 580.822 558.634C580.464 558.482 580.207 558.276 580.056 558.115L584.613 553.827ZM581.627 552.558V546.301H556.998V552.558V558.815H581.627V552.558ZM545.355 542.184V548.441H585.284V542.184V535.927H545.355V542.184ZM585.284 542.184V548.441C587.012 548.441 588.305 548.979 589.517 550.191L593.942 545.767L598.366 541.342C594.802 537.778 590.324 535.927 585.284 535.927V542.184ZM593.942 545.767L589.517 550.191C590.73 551.404 591.267 552.697 591.267 554.424H597.524H603.781C603.781 549.384 601.93 544.906 598.366 541.342L593.942 545.767ZM597.524 554.424H591.267V562.783H597.524H603.781V554.424H597.524ZM597.524 562.783H591.267C591.267 564.226 590.863 565.36 590.015 566.426L594.912 570.321L599.809 574.216C602.444 570.903 603.781 567.013 603.781 562.783H597.524ZM594.912 570.321L589.961 566.495C589.139 567.558 588.18 568.179 586.88 568.492L588.344 574.575L589.809 580.659C593.883 579.678 597.301 577.462 599.863 574.147L594.912 570.321ZM588.344 574.575L583.16 578.079L594.057 594.2L599.241 590.696L604.425 587.192L593.528 571.071L588.344 574.575ZM599.241 590.696V584.439H586.031V590.696V596.953H599.241V590.696ZM586.031 590.696L591.214 587.191L580.616 571.518L575.433 575.023L570.249 578.528L580.847 594.201L586.031 590.696ZM575.433 575.023V568.766H556.998V575.023V581.28H575.433V575.023ZM556.998 575.023H550.741V590.696H556.998H563.255V575.023H556.998ZM556.998 590.696V584.439H545.355V590.696V596.953H556.998V590.696ZM545.355 590.696H551.613V542.184H545.355H539.098V590.696H545.355ZM606.214 542.184V535.927H599.957V542.184H606.214ZM651.293 542.184H657.55V535.927H651.293V542.184ZM651.293 552.11V558.368H657.55V552.11H651.293ZM617.857 552.11V545.853H611.6V552.11H617.857ZM617.857 561.44H611.6V567.697H617.857V561.44ZM649.501 561.44H655.759V555.183H649.501V561.44ZM649.501 571.366V577.623H655.759V571.366H649.501ZM617.857 571.366V565.109H611.6V571.366H617.857ZM617.857 580.77H611.6V587.027H617.857V580.77ZM651.293 580.77H657.55V574.513H651.293V580.77ZM651.293 590.696V596.953H657.55V590.696H651.293ZM606.214 590.696H599.957V596.953H606.214V590.696ZM606.214 542.184V548.441H651.293V542.184V535.927H606.214V542.184ZM651.293 542.184H645.035V552.11H651.293H657.55V542.184H651.293ZM651.293 552.11V545.853H617.857V552.11V558.368H651.293V552.11ZM617.857 552.11H611.6V561.44H617.857H624.114V552.11H617.857ZM617.857 561.44V567.697H649.501V561.44V555.183H617.857V561.44ZM649.501 561.44H643.244V571.366H649.501H655.759V561.44H649.501ZM649.501 571.366V565.109H617.857V571.366V577.623H649.501V571.366ZM617.857 571.366H611.6V580.77H617.857H624.114V571.366H617.857ZM617.857 580.77V587.027H651.293V580.77V574.513H617.857V580.77ZM651.293 580.77H645.035V590.696H651.293H657.55V580.77H651.293ZM651.293 590.696V584.439H606.214V590.696V596.953H651.293V590.696ZM606.214 590.696H612.471V542.184H606.214H599.957V590.696H606.214ZM707.194 545.767L702.769 550.191V550.191L707.194 545.767ZM710.776 558.38V564.637H717.033V558.38H710.776ZM699.133 558.38H692.876V564.637H699.133V558.38ZM699.133 556.812H705.39V556.682L705.385 556.552L699.133 556.812ZM697.79 553.827L693.233 558.115L693.363 558.254L693.501 558.383L697.79 553.827ZM671.817 553.603L675.915 558.332L676.003 558.256L676.087 558.177L671.817 553.603ZM681.371 561.067L680.859 567.303V567.303L681.371 561.067ZM691.222 562.186L690.349 568.382L690.361 568.384L691.222 562.186ZM701.148 564.052L699.654 570.128L699.701 570.14L699.749 570.15L701.148 564.052ZM708.239 587.114L703.814 582.689H703.814L708.239 587.114ZM662.637 587.114L658.213 591.538V591.538L662.637 587.114ZM659.055 574.501V568.243H652.798V574.501H659.055ZM670.698 574.501H676.955V568.243H670.698V574.501ZM671.892 579.128L667.336 583.416L667.466 583.554L667.604 583.684L671.892 579.128ZM699.059 579.352L703.157 584.08L703.244 584.005L703.328 583.926L699.059 579.352ZM697.865 573.306L695.71 579.181L695.741 579.192L695.772 579.203L697.865 573.306ZM691.968 572.038L691.192 578.246L691.2 578.247L691.208 578.248L691.968 572.038ZM683.983 571.217L683.445 577.451L683.454 577.451L683.983 571.217ZM675.251 570.097L674.104 576.248L674.154 576.258L674.205 576.266L675.251 570.097ZM667.19 568.157L665.211 574.093L665.285 574.117L665.359 574.14L667.19 568.157ZM661.294 564.724L656.798 569.075L656.869 569.149L656.943 569.22L661.294 564.724ZM662.637 545.767L667.062 550.191V550.191L662.637 545.767ZM671.295 542.184V548.441H698.536V542.184V535.927H671.295V542.184ZM698.536 542.184V548.441C700.263 548.441 701.557 548.979 702.769 550.191L707.194 545.767L711.618 541.342C708.054 537.778 703.576 535.927 698.536 535.927V542.184ZM707.194 545.767L702.769 550.191C703.982 551.404 704.519 552.697 704.519 554.424H710.776H717.033C717.033 549.384 715.182 544.906 711.618 541.342L707.194 545.767ZM710.776 554.424H704.519V558.38H710.776H717.033V554.424H710.776ZM710.776 558.38V552.123H699.133V558.38V564.637H710.776V558.38ZM699.133 558.38H705.39V556.812H699.133H692.876V558.38H699.133ZM699.133 556.812L705.385 556.552C705.269 553.777 704.153 551.223 702.078 549.271L697.79 553.827L693.501 558.383C693.365 558.255 693.189 558.038 693.054 557.738C692.921 557.442 692.887 557.196 692.882 557.073L699.133 556.812ZM697.79 553.827L702.346 549.539C700.388 547.458 697.778 546.301 694.879 546.301V552.558V558.815C694.662 558.815 694.331 558.771 693.965 558.611C693.601 558.453 693.359 558.249 693.233 558.115L697.79 553.827ZM694.879 552.558V546.301H674.653V552.558V558.815H694.879V552.558ZM674.653 552.558V546.301C672.131 546.301 669.596 547.117 667.548 549.029L671.817 553.603L676.087 558.177C675.859 558.39 675.569 558.573 675.249 558.691C674.942 558.804 674.72 558.815 674.653 558.815V552.558ZM671.817 553.603L667.719 548.875C665.443 550.847 664.441 553.527 664.441 556.215H670.698H676.955C676.955 556.385 676.924 556.751 676.729 557.206C676.527 557.678 676.226 558.062 675.915 558.332L671.817 553.603ZM670.698 556.215H664.441V557.409H670.698H676.955V556.215H670.698ZM670.698 557.409H664.441C664.441 560.386 666.079 562.488 667.613 563.685C669.02 564.783 670.646 565.407 672 565.803L673.758 559.798L675.516 553.793C674.83 553.592 674.926 553.518 675.313 553.82C675.543 554 675.961 554.38 676.327 555.022C676.716 555.707 676.955 556.533 676.955 557.409H670.698ZM673.758 559.798L672 565.803C674.58 566.558 677.567 567.033 680.859 567.303L681.371 561.067L681.882 554.83C679.104 554.603 677.016 554.232 675.516 553.793L673.758 559.798ZM681.371 561.067L680.859 567.303C683.755 567.54 686.917 567.899 690.349 568.382L691.222 562.186L692.095 555.99C688.462 555.478 685.056 555.09 681.882 554.83L681.371 561.067ZM691.222 562.186L690.361 568.384C693.763 568.856 696.857 569.44 699.654 570.128L701.148 564.052L702.643 557.976C699.369 557.171 695.846 556.511 692.083 555.988L691.222 562.186ZM701.148 564.052L699.749 570.15C702.034 570.675 703.662 571.488 704.838 572.434L708.761 567.56L712.684 562.685C709.78 560.347 706.333 558.822 702.548 557.953L701.148 564.052ZM708.761 567.56L704.838 572.434C705.564 573.019 705.564 573.31 705.564 573.605H711.821H718.078C718.078 569.123 716.038 565.384 712.684 562.685L708.761 567.56ZM711.821 573.605H705.564V578.456H711.821H718.078V573.605H711.821ZM711.821 578.456H705.564C705.564 580.183 705.027 581.477 703.814 582.689L708.239 587.114L712.663 591.538C716.227 587.974 718.078 583.496 718.078 578.456H711.821ZM708.239 587.114L703.814 582.689C702.602 583.902 701.308 584.439 699.581 584.439V590.696V596.953C704.621 596.953 709.099 595.102 712.663 591.538L708.239 587.114ZM699.581 590.696V584.439H671.295V590.696V596.953H699.581V590.696ZM671.295 590.696V584.439C669.568 584.439 668.274 583.902 667.062 582.689L662.637 587.114L658.213 591.538C661.777 595.102 666.255 596.953 671.295 596.953V590.696ZM662.637 587.114L667.062 582.689C665.849 581.477 665.312 580.183 665.312 578.456H659.055H652.798C652.798 583.496 654.649 587.974 658.213 591.538L662.637 587.114ZM659.055 578.456H665.312V574.501H659.055H652.798V578.456H659.055ZM659.055 574.501V580.758H670.698V574.501V568.243H659.055V574.501ZM670.698 574.501H664.441V576.068H670.698H676.955V574.501H670.698ZM670.698 576.068H664.441C664.441 578.806 665.414 581.374 667.336 583.416L671.892 579.128L676.448 574.839C676.566 574.964 676.716 575.173 676.825 575.454C676.934 575.732 676.955 575.957 676.955 576.068H670.698ZM671.892 579.128L667.604 583.684C669.646 585.606 672.214 586.579 674.952 586.579V580.322V574.065C675.062 574.065 675.288 574.086 675.566 574.194C675.847 574.304 676.056 574.454 676.18 574.571L671.892 579.128ZM674.952 580.322V586.579H696.223V580.322V574.065H674.952V580.322ZM696.223 580.322V586.579C698.619 586.579 701.095 585.867 703.157 584.08L699.059 579.352L694.961 574.623C695.203 574.414 695.485 574.255 695.765 574.159C696.031 574.068 696.204 574.065 696.223 574.065V580.322ZM699.059 579.352L703.328 583.926C705.441 581.954 706.435 579.354 706.435 576.665H700.178H693.921C693.921 576.492 693.953 576.158 694.122 575.751C694.296 575.335 694.547 575.004 694.789 574.777L699.059 579.352ZM700.178 576.665H706.435V575.471H700.178H693.921V576.665H700.178ZM700.178 575.471H706.435C706.435 570.158 701.766 568.051 699.957 567.41L697.865 573.306L695.772 579.203C696.132 579.331 695.817 579.288 695.325 578.827C695.047 578.567 694.68 578.143 694.386 577.525C694.081 576.886 693.921 576.179 693.921 575.471H700.178ZM697.865 573.306L700.019 567.432C697.902 566.656 695.415 566.156 692.729 565.827L691.968 572.038L691.208 578.248C693.398 578.517 694.842 578.863 695.71 579.181L697.865 573.306ZM691.968 572.038L692.745 565.829C690.258 565.518 687.512 565.236 684.511 564.982L683.983 571.217L683.454 577.451C686.325 577.695 688.902 577.96 691.192 578.246L691.968 572.038ZM683.983 571.217L684.52 564.983C681.809 564.749 679.068 564.398 676.296 563.928L675.251 570.097L674.205 576.266C677.304 576.792 680.385 577.187 683.445 577.451L683.983 571.217ZM675.251 570.097L676.397 563.946C673.655 563.435 671.201 562.841 669.022 562.174L667.19 568.157L665.359 574.14C668.056 574.965 670.975 575.665 674.104 576.248L675.251 570.097ZM667.19 568.157L669.169 562.221C667.517 561.67 666.408 560.965 665.645 560.227L661.294 564.724L656.943 569.22C659.265 571.467 662.087 573.051 665.211 574.093L667.19 568.157ZM661.294 564.724L665.79 560.372C665.393 559.962 665.312 559.693 665.312 559.275H659.055H652.798C652.798 563.037 654.21 566.401 656.798 569.075L661.294 564.724ZM659.055 559.275H665.312V554.424H659.055H652.798V559.275H659.055ZM659.055 554.424H665.312C665.312 552.697 665.849 551.404 667.062 550.191L662.637 545.767L658.213 541.342C654.649 544.906 652.798 549.384 652.798 554.424H659.055ZM662.637 545.767L667.062 550.191C668.274 548.979 669.568 548.441 671.295 548.441V542.184V535.927C666.255 535.927 661.777 537.778 658.213 541.342L662.637 545.767ZM767.615 545.767L763.19 550.191V550.191L767.615 545.767ZM771.197 558.38V564.637H777.454V558.38H771.197ZM759.554 558.38H753.297V564.637H759.554V558.38ZM759.554 556.812H765.812V556.682L765.806 556.552L759.554 556.812ZM758.211 553.827L753.655 558.115L753.785 558.254L753.923 558.383L758.211 553.827ZM732.239 553.603L736.337 558.332L736.424 558.256L736.508 558.177L732.239 553.603ZM741.792 561.067L741.28 567.303V567.303L741.792 561.067ZM751.643 562.186L750.771 568.382L750.783 568.384L751.643 562.186ZM761.57 564.052L760.075 570.128L760.123 570.14L760.17 570.15L761.57 564.052ZM768.66 587.114L764.235 582.689H764.235L768.66 587.114ZM723.059 587.114L718.634 591.538V591.538L723.059 587.114ZM719.476 574.501V568.243H713.219V574.501H719.476ZM731.119 574.501H737.376V568.243H731.119V574.501ZM732.313 579.128L727.757 583.416L727.887 583.554L728.025 583.684L732.313 579.128ZM759.48 579.352L763.578 584.08L763.665 584.005L763.749 583.926L759.48 579.352ZM758.286 573.306L756.132 579.181L756.162 579.192L756.193 579.203L758.286 573.306ZM752.39 572.038L751.614 578.246L751.621 578.247L751.629 578.248L752.39 572.038ZM744.404 571.217L743.866 577.451L743.875 577.451L744.404 571.217ZM735.672 570.097L734.525 576.248L734.575 576.258L734.626 576.266L735.672 570.097ZM727.611 568.157L725.633 574.093L725.706 574.117L725.78 574.14L727.611 568.157ZM721.715 564.724L717.219 569.075L717.29 569.149L717.364 569.22L721.715 564.724ZM723.059 545.767L727.483 550.191V550.191L723.059 545.767ZM731.716 542.184V548.441H758.957V542.184V535.927H731.716V542.184ZM758.957 542.184V548.441C760.685 548.441 761.978 548.979 763.19 550.191L767.615 545.767L772.039 541.342C768.475 537.778 763.997 535.927 758.957 535.927V542.184ZM767.615 545.767L763.19 550.191C764.403 551.404 764.94 552.697 764.94 554.424H771.197H777.454C777.454 549.384 775.603 544.906 772.039 541.342L767.615 545.767ZM771.197 554.424H764.94V558.38H771.197H777.454V554.424H771.197ZM771.197 558.38V552.123H759.554V558.38V564.637H771.197V558.38ZM759.554 558.38H765.812V556.812H759.554H753.297V558.38H759.554ZM759.554 556.812L765.806 556.552C765.691 553.777 764.574 551.223 762.499 549.271L758.211 553.827L753.923 558.383C753.786 558.255 753.61 558.038 753.475 557.738C753.342 557.442 753.308 557.196 753.303 557.073L759.554 556.812ZM758.211 553.827L762.767 549.539C760.809 547.458 758.199 546.301 755.3 546.301V552.558V558.815C755.083 558.815 754.752 558.771 754.386 558.611C754.022 558.453 753.78 558.249 753.655 558.115L758.211 553.827ZM755.3 552.558V546.301H735.075V552.558V558.815H755.3V552.558ZM735.075 552.558V546.301C732.553 546.301 730.017 547.117 727.969 549.029L732.239 553.603L736.508 558.177C736.281 558.39 735.99 558.573 735.67 558.691C735.363 558.804 735.141 558.815 735.075 558.815V552.558ZM732.239 553.603L728.141 548.875C725.864 550.847 724.862 553.527 724.862 556.215H731.119H737.376C737.376 556.385 737.345 556.751 737.15 557.206C736.948 557.678 736.647 558.062 736.337 558.332L732.239 553.603ZM731.119 556.215H724.862V557.409H731.119H737.376V556.215H731.119ZM731.119 557.409H724.862C724.862 560.386 726.501 562.488 728.034 563.685C729.441 564.783 731.067 565.407 732.421 565.803L734.179 559.798L735.937 553.793C735.251 553.592 735.347 553.518 735.734 553.82C735.964 554 736.382 554.38 736.748 555.022C737.137 555.707 737.376 556.533 737.376 557.409H731.119ZM734.179 559.798L732.421 565.803C735.001 566.558 737.988 567.033 741.28 567.303L741.792 561.067L742.303 554.83C739.525 554.603 737.437 554.232 735.937 553.793L734.179 559.798ZM741.792 561.067L741.28 567.303C744.176 567.54 747.338 567.899 750.771 568.382L751.643 562.186L752.516 555.99C748.883 555.478 745.477 555.09 742.303 554.83L741.792 561.067ZM751.643 562.186L750.783 568.384C754.184 568.856 757.279 569.44 760.075 570.128L761.57 564.052L763.064 557.976C759.79 557.171 756.267 556.511 752.504 555.988L751.643 562.186ZM761.57 564.052L760.17 570.15C762.455 570.675 764.083 571.488 765.259 572.434L769.182 567.56L773.105 562.685C770.201 560.347 766.754 558.822 762.969 557.953L761.57 564.052ZM769.182 567.56L765.259 572.434C765.986 573.019 765.985 573.31 765.985 573.605H772.242H778.499C778.499 569.123 776.459 565.384 773.105 562.685L769.182 567.56ZM772.242 573.605H765.985V578.456H772.242H778.499V573.605H772.242ZM772.242 578.456H765.985C765.985 580.183 765.448 581.477 764.235 582.689L768.66 587.114L773.084 591.538C776.648 587.974 778.499 583.496 778.499 578.456H772.242ZM768.66 587.114L764.235 582.689C763.023 583.902 761.729 584.439 760.002 584.439V590.696V596.953C765.042 596.953 769.52 595.102 773.084 591.538L768.66 587.114ZM760.002 590.696V584.439H731.716V590.696V596.953H760.002V590.696ZM731.716 590.696V584.439C729.989 584.439 728.696 583.902 727.483 582.689L723.059 587.114L718.634 591.538C722.198 595.102 726.676 596.953 731.716 596.953V590.696ZM723.059 587.114L727.483 582.689C726.271 581.477 725.733 580.183 725.733 578.456H719.476H713.219C713.219 583.496 715.07 587.974 718.634 591.538L723.059 587.114ZM719.476 578.456H725.733V574.501H719.476H713.219V578.456H719.476ZM719.476 574.501V580.758H731.119V574.501V568.243H719.476V574.501ZM731.119 574.501H724.862V576.068H731.119H737.376V574.501H731.119ZM731.119 576.068H724.862C724.862 578.806 725.835 581.374 727.757 583.416L732.313 579.128L736.87 574.839C736.987 574.964 737.137 575.173 737.247 575.454C737.355 575.732 737.376 575.957 737.376 576.068H731.119ZM732.313 579.128L728.025 583.684C730.067 585.606 732.635 586.579 735.373 586.579V580.322V574.065C735.484 574.065 735.709 574.086 735.987 574.194C736.268 574.304 736.477 574.454 736.602 574.571L732.313 579.128ZM735.373 580.322V586.579H756.644V580.322V574.065H735.373V580.322ZM756.644 580.322V586.579C759.04 586.579 761.516 585.867 763.578 584.08L759.48 579.352L755.382 574.623C755.624 574.414 755.906 574.255 756.186 574.159C756.452 574.068 756.625 574.065 756.644 574.065V580.322ZM759.48 579.352L763.749 583.926C765.862 581.954 766.856 579.354 766.856 576.665H760.599H754.342C754.342 576.492 754.374 576.158 754.544 575.751C754.717 575.335 754.968 575.004 755.21 574.777L759.48 579.352ZM760.599 576.665H766.856V575.471H760.599H754.342V576.665H760.599ZM760.599 575.471H766.856C766.856 570.158 762.187 568.051 760.378 567.41L758.286 573.306L756.193 579.203C756.553 579.331 756.238 579.288 755.746 578.827C755.468 578.567 755.102 578.143 754.807 577.525C754.502 576.886 754.342 576.179 754.342 575.471H760.599ZM758.286 573.306L760.44 567.432C758.323 566.656 755.836 566.156 753.15 565.827L752.39 572.038L751.629 578.248C753.819 578.517 755.263 578.863 756.132 579.181L758.286 573.306ZM752.39 572.038L753.166 565.829C750.679 565.518 747.933 565.236 744.932 564.982L744.404 571.217L743.875 577.451C746.746 577.695 749.323 577.96 751.614 578.246L752.39 572.038ZM744.404 571.217L744.941 564.983C742.23 564.749 739.489 564.398 736.717 563.928L735.672 570.097L734.626 576.266C737.725 576.792 740.806 577.187 743.866 577.451L744.404 571.217ZM735.672 570.097L736.819 563.946C734.076 563.435 731.622 562.841 729.443 562.174L727.611 568.157L725.78 574.14C728.477 574.965 731.396 575.665 734.525 576.248L735.672 570.097ZM727.611 568.157L729.59 562.221C727.938 561.67 726.829 560.965 726.067 560.227L721.715 564.724L717.364 569.22C719.686 571.467 722.508 573.051 725.633 574.093L727.611 568.157ZM721.715 564.724L726.212 560.372C725.814 559.962 725.733 559.693 725.733 559.275H719.476H713.219C713.219 563.037 714.631 566.401 717.219 569.075L721.715 564.724ZM719.476 559.275H725.733V554.424H719.476H713.219V559.275H719.476ZM719.476 554.424H725.733C725.733 552.697 726.271 551.404 727.483 550.191L723.059 545.767L718.634 541.342C715.07 544.906 713.219 549.384 713.219 554.424H719.476ZM723.059 545.767L727.483 550.191C728.696 548.979 729.989 548.441 731.716 548.441V542.184V535.927C726.676 535.927 722.198 537.778 718.634 541.342L723.059 545.767Z" fill="white" mask="url(#path-2-outside-1_411_316)"/>
</svg>
